<svg xmlns="http://www.w3.org/2000/svg" width="30.781" height="31" viewBox="0 0 30.781 31">
  <metadata><?xpacket begin="﻿" id="W5M0MpCehiHzreSzNTczkc9d"?>
<x:xmpmeta xmlns:x="adobe:ns:meta/" x:xmptk="Adobe XMP Core 5.6-c142 79.160924, 2017/07/13-01:06:39        ">
   <rdf:RDF xmlns:rdf="http://www.w3.org/1999/02/22-rdf-syntax-ns#">
      <rdf:Description rdf:about=""/>
   </rdf:RDF>
</x:xmpmeta>
                                                                                                    
                                                                                                    
                                                                                                    
                                                                                                    
                                                                                                    
                                                                                                    
                                                                                                    
                                                                                                    
                                                                                                    
                                                                                                    
                                                                                                    
                                                                                                    
                                                                                                    
                                                                                                    
                                                                                                    
                                                                                                    
                                                                                                    
                                                                                                    
                                                                                                    
                                                                                                    
                           
<?xpacket end="w"?></metadata>
<defs>
    <style>
      .cls-1 {
        fill: #f5c506;
        fill-rule: evenodd;
      }
    </style>
  </defs>
  <path id="Shape_8_copy_3" data-name="Shape 8 copy 3" class="cls-1" d="M65,1536.54l4.85-5.04L65,1526.46h4.114l4.851,5.04-4.851,5.04H65Zm6.244,0,4.85-5.04-4.85-5.04h4.115l4.851,5.04-4.851,5.04H71.241Zm24.54,0-4.85-5.04,4.85-5.04H91.667l-4.851,5.04,4.851,5.04h4.114Zm-6.244,0-4.85-5.04,4.85-5.04H85.422l-4.851,5.04,4.851,5.04h4.115ZM75.385,1516l5,4.88,5-4.88v4.14l-5,4.89-5-4.89V1516Zm0,6.29,5,4.88,5-4.88v4.14l-5,4.89-5-4.89v-4.14Zm0,24.71,5-4.88,5,4.88v-4.14l-5-4.89-5,4.89V1547Zm0-6.29,5-4.88,5,4.88v-4.14l-5-4.89-5,4.89v4.14Z" transform="translate(-65 -1516)"/>
</svg>
