<svg xmlns="http://www.w3.org/2000/svg" width="28" height="21" viewBox="0 0 28 21">
  <metadata><?xpacket begin="﻿" id="W5M0MpCehiHzreSzNTczkc9d"?>
<x:xmpmeta xmlns:x="adobe:ns:meta/" x:xmptk="Adobe XMP Core 5.6-c142 79.160924, 2017/07/13-01:06:39        ">
   <rdf:RDF xmlns:rdf="http://www.w3.org/1999/02/22-rdf-syntax-ns#">
      <rdf:Description rdf:about=""/>
   </rdf:RDF>
</x:xmpmeta>
                                                                                                    
                                                                                                    
                                                                                                    
                                                                                                    
                                                                                                    
                                                                                                    
                                                                                                    
                                                                                                    
                                                                                                    
                                                                                                    
                                                                                                    
                                                                                                    
                                                                                                    
                                                                                                    
                                                                                                    
                                                                                                    
                                                                                                    
                                                                                                    
                                                                                                    
                                                                                                    
                           
<?xpacket end="w"?></metadata>
<defs>
    <style>
      .cls-1 {
        fill: #b99403;
        fill-rule: evenodd;
      }
    </style>
  </defs>
  <path class="cls-1" d="M530.692,40.183l-9.655-9.656,7.145-7.146,2.533-2.532a1.7,1.7,0,0,1,.285.9v17.5A1.7,1.7,0,0,1,530.692,40.183Zm-3.128-17.42L524.3,26.022l-6.238,6.237-1.094,1.095L506.436,22.817l-1.75-1.75-0.8-.8A1.7,1.7,0,0,1,504.75,20h24.5a1.705,1.705,0,0,1,.835.241l-0.881.881Zm-23.5-1.076,8.814,8.814-9.618,9.618A1.7,1.7,0,0,1,503,39.25V21.75a1.7,1.7,0,0,1,.263-0.868l0.8,0.8h0Zm9.433,9.433,0.369,0.369L514,31.62l1.2,1.2,1.75,1.75,0.073-.073,0.019,0.018,1.64-1.641,1.732-1.732,9.634,9.635a1.7,1.7,0,0,1-.8.219h-24.5a1.7,1.7,0,0,1-.868-0.263Z" transform="translate(-503 -20)"/>
</svg>
