<svg xmlns="http://www.w3.org/2000/svg" width="22.031" height="22" viewBox="0 0 22.031 22">
  <metadata><?xpacket begin="﻿" id="W5M0MpCehiHzreSzNTczkc9d"?>
<x:xmpmeta xmlns:x="adobe:ns:meta/" x:xmptk="Adobe XMP Core 5.6-c142 79.160924, 2017/07/13-01:06:39        ">
   <rdf:RDF xmlns:rdf="http://www.w3.org/1999/02/22-rdf-syntax-ns#">
      <rdf:Description rdf:about=""/>
   </rdf:RDF>
</x:xmpmeta>
                                                                                                    
                                                                                                    
                                                                                                    
                                                                                                    
                                                                                                    
                                                                                                    
                                                                                                    
                                                                                                    
                                                                                                    
                                                                                                    
                                                                                                    
                                                                                                    
                                                                                                    
                                                                                                    
                                                                                                    
                                                                                                    
                                                                                                    
                                                                                                    
                                                                                                    
                                                                                                    
                           
<?xpacket end="w"?></metadata>
<defs>
    <style>
      .cls-1 {
        fill: #b99403;
        fill-rule: evenodd;
      }
    </style>
  </defs>
  <path class="cls-1" d="M382.162,22.828a2.83,2.83,0,1,0,4.007,4l1.62-1.618A5.572,5.572,0,0,1,388,26.654a5.594,5.594,0,0,1-7.133,5.439c-0.015.017-.02,0.039-0.036,0.055l-10.017,10a2.83,2.83,0,0,1-4.006-4l10.016-10c0.017-.017.041-0.022,0.058-0.038a5.571,5.571,0,0,1-.214-1.458,5.6,5.6,0,0,1,7.115-5.445Zm-13.285,16.55a0.707,0.707,0,1,0,.708.707A0.707,0.707,0,0,0,368.877,39.377Z" transform="translate(-365.969 -21)"/>
</svg>
