<svg xmlns="http://www.w3.org/2000/svg" width="51.188" height="51.19" viewBox="0 0 51.188 51.19">
  <metadata><?xpacket begin="﻿" id="W5M0MpCehiHzreSzNTczkc9d"?>
<x:xmpmeta xmlns:x="adobe:ns:meta/" x:xmptk="Adobe XMP Core 5.6-c142 79.160924, 2017/07/13-01:06:39        ">
   <rdf:RDF xmlns:rdf="http://www.w3.org/1999/02/22-rdf-syntax-ns#">
      <rdf:Description rdf:about=""/>
   </rdf:RDF>
</x:xmpmeta>
                                                                                                    
                                                                                                    
                                                                                                    
                                                                                                    
                                                                                                    
                                                                                                    
                                                                                                    
                                                                                                    
                                                                                                    
                                                                                                    
                                                                                                    
                                                                                                    
                                                                                                    
                                                                                                    
                                                                                                    
                                                                                                    
                                                                                                    
                                                                                                    
                                                                                                    
                                                                                                    
                           
<?xpacket end="w"?></metadata>
<defs>
    <style>
      .cls-1 {
        fill: #f5c506;
        fill-rule: evenodd;
        opacity: 0.5;
      }
    </style>
  </defs>
  <path id="Shape_8_copy_4" data-name="Shape 8 copy 4" class="cls-1" d="M141.414,1803.5l12.219-.46-0.082-12.23,5.217,4.99,0.082,12.23-12.219.46Zm7.918,7.57,12.219-.46-0.082-12.23,5.217,4.99,0.082,12.23-12.219.46Zm31.117,29.76-0.082-12.23,12.219-.46-5.217-4.99-12.22.46,0.083,12.23Zm-7.918-7.57-0.082-12.23,12.219-.47-5.217-4.98-12.22.46,0.083,12.23Zm6.787-43.03,0.464,12.22,12.228-.08-4.989,5.22-12.228.08-0.464-12.22Zm-7.571,7.92,0.463,12.22,12.228-.08-4.989,5.21-12.228.09-0.464-12.22Zm-29.757,31.12,12.227-.09,0.464,12.22,4.99-5.21-0.464-12.22-12.228.08Zm7.572-7.92,12.227-.08,0.464,12.22,4.989-5.22-0.464-12.22-12.227.08Z" transform="translate(-141.406 -1790.22)"/>
</svg>
