<svg xmlns="http://www.w3.org/2000/svg" width="29.156" height="29.37" viewBox="0 0 29.156 29.37">
  <metadata><?xpacket begin="﻿" id="W5M0MpCehiHzreSzNTczkc9d"?>
<x:xmpmeta xmlns:x="adobe:ns:meta/" x:xmptk="Adobe XMP Core 5.6-c142 79.160924, 2017/07/13-01:06:39        ">
   <rdf:RDF xmlns:rdf="http://www.w3.org/1999/02/22-rdf-syntax-ns#">
      <rdf:Description rdf:about=""/>
   </rdf:RDF>
</x:xmpmeta>
                                                                                                    
                                                                                                    
                                                                                                    
                                                                                                    
                                                                                                    
                                                                                                    
                                                                                                    
                                                                                                    
                                                                                                    
                                                                                                    
                                                                                                    
                                                                                                    
                                                                                                    
                                                                                                    
                                                                                                    
                                                                                                    
                                                                                                    
                                                                                                    
                                                                                                    
                                                                                                    
                           
<?xpacket end="w"?></metadata>
<defs>
    <style>
      .cls-1 {
        fill: #f5c506;
        fill-rule: evenodd;
        opacity: 0.5;
      }
    </style>
  </defs>
  <path id="Shape_8_copy_4" data-name="Shape 8 copy 4" class="cls-1" d="M65.806,1524.32l6.964-.26-0.047-7.02,2.974,2.86,0.047,7.02-6.965.27Zm4.513,4.35,6.964-.27-0.047-7.02,2.974,2.87,0.047,7.02-6.964.26Zm17.735,17.08-0.047-7.02,6.965-.26L92,1535.6l-6.965.27,0.047,7.02Zm-4.513-4.34-0.047-7.02,6.964-.27-2.974-2.86-6.965.26,0.047,7.02Zm3.869-24.7,0.264,7.01,6.969-.05-2.844,3-6.97.05-0.264-7.02Zm-4.316,4.54,0.264,7.02,6.969-.05-2.844,3-6.97.04-0.264-7.01Zm-16.96,17.87,6.969-.05,0.265,7.01,2.844-2.99-0.264-7.02-6.969.05Zm4.316-4.55,6.969-.05,0.265,7.02,2.844-3-0.264-7.01-6.969.05Z" transform="translate(-65.813 -1516.72)"/>
</svg>
