<svg xmlns="http://www.w3.org/2000/svg" width="158.062" height="133" viewBox="0 0 158.062 133">
  <metadata><?xpacket begin="﻿" id="W5M0MpCehiHzreSzNTczkc9d"?>
<x:xmpmeta xmlns:x="adobe:ns:meta/" x:xmptk="Adobe XMP Core 5.6-c142 79.160924, 2017/07/13-01:06:39        ">
   <rdf:RDF xmlns:rdf="http://www.w3.org/1999/02/22-rdf-syntax-ns#">
      <rdf:Description rdf:about=""/>
   </rdf:RDF>
</x:xmpmeta>
                                                                                                    
                                                                                                    
                                                                                                    
                                                                                                    
                                                                                                    
                                                                                                    
                                                                                                    
                                                                                                    
                                                                                                    
                                                                                                    
                                                                                                    
                                                                                                    
                                                                                                    
                                                                                                    
                                                                                                    
                                                                                                    
                                                                                                    
                                                                                                    
                                                                                                    
                                                                                                    
                           
<?xpacket end="w"?></metadata>
<defs>
    <style>
      .cls-1 {
        fill: #bc7d00;
        fill-opacity: 0.9;
        fill-rule: evenodd;
      }
    </style>
  </defs>
  <path id="twitter" class="cls-1" d="M243.522,885.312l-14.817,15.313v2.553a33.97,33.97,0,0,1-1.067,8.068c-0.345,21.067-6.838,49-33.506,71.051C141.676,1025.67,85.476,987.4,85.476,987.4c44.45,0,44.45-15.314,44.45-15.314-9.877,0-29.633-20.417-29.633-20.417,4.939,5.1,14.817,0,14.817,0-24.7-15.314-24.7-30.627-24.7-30.627,4.939,5.1,14.817,0,14.817,0C80.537,900.625,95.354,875.1,95.354,875.1c4.939,25.522,69.145,35.731,69.145,35.731l0.817-.422a62.463,62.463,0,0,1-.817-9.787C164.5,882.3,178.872,870,196.6,870a31.483,31.483,0,0,1,24.281,11.7l2.883-1.49L238.583,870l-9.878,20.418Z" transform="translate(-85.469 -870)"/>
</svg>
